<svg width="407" height="407" viewBox="0 0 407 407" fill="none" xmlns="http://www.w3.org/2000/svg">
<circle cx="203.5" cy="203.5" r="183.5" stroke="url(#paint0_linear_102_2)" stroke-width="40"/>
<path d="M139.7 322C133.7 322 128.5 320.1 124.1 316.3C119.7 312.3 117.5 307.5 117.5 301.9V132.1C117.5 126.5 119.6 121.8 123.8 118C128.2 114 133.5 112 139.7 112H219.2C239.2 112 255.1 117.4 266.9 128.2C278.9 139 284.9 153.5 284.9 171.7C284.9 179.9 282.6 187.8 278 195.4C273.6 202.8 267.7 208.7 260.3 213.1V214.3C270.5 217.9 278.6 223.8 284.6 232C290.6 240.2 293.6 249.3 293.6 259.3C293.6 271.5 290.7 282.4 284.9 292C279.1 301.4 271 308.8 260.6 314.2C250.2 319.4 238.3 322 224.9 322H139.7ZM218.6 198.7C224.8 198.7 230 196.3 234.2 191.5C238.6 186.5 240.8 180.5 240.8 173.5C240.8 165.9 238.8 160 234.8 155.8C230.8 151.4 225.4 149.2 218.6 149.2H160.4V198.7H218.6ZM224.6 284.8C232.2 284.8 238.2 282.6 242.6 278.2C247.2 273.6 249.5 267.5 249.5 259.9C249.5 252.1 247.3 246.1 242.9 241.9C238.5 237.5 232.4 235.3 224.6 235.3H160.4V284.8H224.6Z" fill="url(#paint1_linear_102_2)"/>
<defs>
<linearGradient id="paint0_linear_102_2" x1="203.5" y1="0" x2="203.5" y2="407" gradientUnits="userSpaceOnUse">
<stop stop-color="#3700AB"/>
<stop offset="1" stop-color="#AB009A"/>
</linearGradient>
<linearGradient id="paint1_linear_102_2" x1="101" y1="203" x2="305" y2="203" gradientUnits="userSpaceOnUse">
<stop stop-color="#002AC0"/>
<stop offset="1" stop-color="#FA00FF"/>
</linearGradient>
</defs>
</svg>
